<svg xmlns="http://www.w3.org/2000/svg" viewBox="371.0 367.3 1303.2 1303.2" aria-hidden="true">
<path fill="rgb(20,33,61)" d="M 1011.2 711.821 C 993.617 692.683 980.917 657.537 977.607 631.734 C 971.755 586.461 984.358 540.737 1012.58 504.855 C 1071.17 429.731 1180.71 415.574 1255.55 474.885 C 1292.09 503.322 1315.77 545.174 1321.32 591.146 C 1326.66 635.144 1314.2 679.451 1286.71 714.221 C 1297.15 785.043 1321.63 856.476 1366.73 912.484 C 1410.02 966.261 1431.16 954.788 1374.44 1017.2 C 1288.92 1111.3 1235.45 1228.99 1194.7 1348.31 C 1205.26 1348.01 1215.82 1347.87 1226.39 1347.88 C 1300.93 1348.02 1375.96 1368.82 1429.64 1423.15 C 1471.82 1465.04 1495.39 1522.14 1495.04 1581.59 C 1504.48 1582.79 1536.21 1585.47 1540.85 1592.65 L 1540.04 1594.51 C 1517.52 1607.28 1440.13 1603.95 1412.55 1599.72 C 1407.61 1598.96 1398.01 1597.22 1394.98 1593.03 L 1395.62 1591.01 C 1405.03 1584.08 1433.28 1582.73 1446.36 1580.61 C 1432.73 1557.39 1415.55 1540.1 1391.8 1526.83 C 1298.65 1474.78 1190.04 1505.05 1095.46 1535.26 C 1070.33 1543.29 1039.97 1555.08 1015.42 1561.55 C 1016.98 1562.43 1018.52 1563.34 1020.04 1564.26 C 1048.96 1562.45 1263.75 1568.21 1273.29 1592.22 C 1272.89 1594.54 1272.82 1595.33 1271.07 1597.07 C 1254.05 1614.03 1105.61 1618.71 1074.44 1619.82 C 1003.53 1622.2 932.564 1622.21 861.659 1619.83 C 802.41 1618.29 741.83 1616.64 683.579 1605.28 C 676.154 1603.83 654.956 1599.97 656.568 1590.12 C 664.213 1580.98 694.444 1577.19 707.166 1575.01 C 660.439 1554.8 629.755 1509.97 618.707 1461.31 C 548.735 1436.16 504.356 1367.46 510.344 1294.53 C 520.933 1165.56 646.719 1040.58 779.987 1052.32 C 888.059 1061.84 967.057 1144.8 956.907 1254.67 C 950.591 1323.04 918.801 1370.88 868.022 1414.39 C 951.212 1412.44 1022.43 1376.9 1104.06 1361.28 C 1094.16 1333.7 1085.58 1305.92 1074.98 1278.59 C 1050.09 1214.53 1018.61 1153.24 981.032 1095.71 C 956.012 1057.13 925.609 1022 895.785 987.183 C 893.167 984.126 890.394 978.741 889.253 974.512 C 882.909 951.009 905.465 942.296 917.395 926.778 C 962.839 877.957 1008.06 778.216 1011.2 711.821 z"/>
<path fill="rgb(255,255,255)" d="M 1020.04 1564.26 C 1019.18 1564.21 1018.32 1564.15 1017.45 1564.12 C 1016.91 1564.1 1014.14 1564.29 1013.54 1563.58 C 1013.43 1563.45 1013.46 1563.27 1013.51 1563.13 C 1013.72 1562.55 1015.21 1561.7 1015.42 1561.55 C 1016.98 1562.43 1018.52 1563.34 1020.04 1564.26 z"/>
<path fill="rgb(255,198,41)" d="M 1057.45 740.13 L 1240.7 740.182 C 1251.53 822.829 1297.75 907.034 1352.29 968.971 C 1332.68 993.125 1310.72 1016.53 1292.39 1041.97 C 1240.02 1114.67 1200.28 1195.49 1172.32 1280.28 C 1171.6 1256.24 1172.37 1228.67 1172.28 1204.21 L 1172.31 1041.32 C 1201.51 1018.99 1206.66 983.266 1175.57 958.768 C 1141.06 931.578 1089.6 964.997 1098.96 1007.95 C 1102.69 1025.06 1111.45 1033.28 1125.18 1042.81 C 1126.63 1108.01 1126.01 1175.3 1126.17 1240.66 C 1126.47 1243.6 1127.61 1272.55 1126.22 1273.43 L 1126.01 1273.33 L 1125.81 1273.36 C 1125.85 1273.14 1125.89 1272.92 1125.94 1272.7 L 1124.96 1271.94 C 1124.85 1271.23 1124.74 1270.51 1124.63 1269.79 C 1092.13 1183.37 1047.54 1101.99 992.192 1028.07 C 978.184 1009.16 960.323 985.613 944.144 968.508 C 1003.03 904.822 1042.36 825.547 1057.45 740.13 z"/>
<path fill="rgb(153,131,78)" d="M 1126.17 1240.66 C 1126.47 1243.6 1127.61 1272.55 1126.22 1273.43 L 1126.01 1273.33 L 1125.81 1273.36 C 1125.85 1273.14 1125.89 1272.92 1125.94 1272.7 L 1124.96 1271.94 C 1124.85 1271.23 1124.74 1270.51 1124.63 1269.79 C 1126.73 1265.76 1125.7 1247.31 1126.17 1240.66 z"/>
<path fill="rgb(36,87,245)" d="M 1213.28 1399.44 C 1287.97 1394.86 1366.13 1421.59 1414.77 1479.89 C 1400.5 1473.02 1384.18 1465.56 1369.03 1461.06 C 1226.59 1418.74 1095.74 1485.84 961.685 1525.54 C 936.928 1532.87 914.08 1539.98 888.907 1544.72 C 810.99 1559.07 712.965 1552.18 672.497 1473 C 723.52 1472.92 747.37 1470.83 796.372 1454.89 C 898.222 1483.1 987.412 1440.45 1084.94 1417.32 C 1130.98 1406.41 1166.54 1401.68 1213.28 1399.44 z"/>
<path fill="rgb(255,255,255)" d="M 1143.12 487.422 C 1167.53 485.253 1197.96 495.11 1218.14 508.753 C 1245.17 527.328 1263.8 555.797 1270 588.002 C 1278.29 631.661 1264.62 658.11 1241.08 692.54 C 1216.95 693.659 1181.88 692.443 1156.96 692.436 C 1124.07 692.084 1091.18 692.217 1058.29 692.835 C 1041.12 670.819 1030.02 649.236 1027.49 620.943 C 1024.6 588.593 1034.67 556.419 1055.48 531.487 C 1078.75 503.78 1107.6 490.55 1143.12 487.422 z"/>
<path fill="rgb(255,255,255)" d="M 573.465 1241.64 C 575.401 1243.53 578.951 1256.33 580.136 1259.59 C 610.224 1342.38 706.232 1359.91 782.481 1336.78 C 831.594 1321.89 867.978 1295.64 892.186 1250.09 C 897.479 1281.21 894.045 1297.07 879.195 1325.99 C 837.389 1402.3 715.226 1443.84 634.078 1413.51 C 557.995 1385.08 547.358 1310.79 573.465 1241.64 z"/>
<path fill="rgb(36,87,245)" d="M 752.731 1102.44 C 812.058 1097.98 870.654 1126.43 894.691 1182.49 C 877.635 1172.16 863.895 1164.98 844.053 1161.52 C 793.948 1152.77 745.578 1169.26 707.766 1201.81 C 681.877 1226.19 667.737 1249 666.635 1284.8 C 613.941 1255.76 609.073 1194.64 647.513 1150.67 C 674.126 1120.24 712.801 1104.94 752.731 1102.44 z"/>
<path fill="rgb(255,255,255)" d="M 814.635 1208.45 C 829.405 1208.32 837.716 1209.74 851.575 1214.08 C 836.787 1257.95 795.661 1284.7 751.925 1293.76 C 739.847 1295.91 733.188 1296.26 720.929 1296.03 C 716.487 1277.18 716.421 1262.75 730.691 1247.52 C 752.689 1224.06 782.584 1210.42 814.635 1208.45 z"/>
</svg>
