<svg xmlns="http://www.w3.org/2000/svg" viewBox="146.9 120.1 1756.3 1756.3" aria-hidden="true">
<path fill="rgb(20,33,61)" d="M 1022.69 185.136 C 1029.73 185.57 1036.23 187.25 1040.46 193.239 C 1053.98 212.36 1066 235.45 1077.59 255.857 C 1095.13 259.771 1143.71 266.814 1155.93 276.939 C 1159.43 279.836 1162.04 283.375 1162.23 288.051 C 1162.43 292.937 1160.48 298.158 1158.07 302.331 C 1150.25 315.914 1122.6 344.8 1110.83 358.478 C 1112.96 382.717 1116.79 411.39 1114.88 435.841 C 1114.67 438.589 1111.3 444.065 1109.8 446.555 C 1128.61 454.318 1145.61 457.7 1165.69 467.567 C 1244.43 506.267 1289.31 559.238 1327.12 635.752 C 1372.07 634.728 1405.89 642.503 1436.11 678.918 C 1457.53 704.914 1467.71 738.369 1464.41 771.889 C 1461.22 804.668 1445.13 834.835 1419.69 855.751 C 1422.94 855.496 1426.19 855.332 1429.45 855.26 C 1460.23 854.432 1485 855.882 1502.2 885.383 C 1509.52 897.956 1510.57 908.67 1510.62 922.863 C 1510.89 999.095 1510.48 1075.31 1510.59 1151.54 L 1510.67 1224.59 C 1510.68 1253.26 1514.55 1280.06 1492.28 1301.97 C 1472.1 1321.82 1449.89 1319.21 1424 1319.03 C 1409.98 1318.93 1395.96 1318.9 1381.94 1318.96 C 1383.61 1321.28 1385.25 1323.62 1386.86 1325.98 C 1404.12 1351.41 1399.91 1380.46 1399.78 1410.03 C 1399.6 1447.58 1401.02 1487.2 1394.15 1524.14 C 1379.76 1601.45 1331.64 1675.49 1266.33 1719.89 C 1302.02 1724.58 1402.24 1728.99 1428.38 1751.88 C 1431.23 1754.38 1433.26 1757.41 1433.23 1761.33 C 1433.2 1764.39 1431.54 1766.97 1429.36 1768.98 C 1386.71 1808.34 1094.86 1810.82 1023.25 1810.64 C 954.018 1811.37 695.837 1806.3 645.121 1770.7 C 642.09 1768.58 638.664 1765.54 638.52 1761.53 C 638.424 1758.86 639.487 1756.39 641.15 1754.37 C 660.047 1731.37 777.268 1721.89 806.053 1720.61 C 782.402 1704.73 761.501 1688.52 742.157 1667.4 C 720.508 1643.39 702.553 1616.3 688.882 1587 C 685.202 1579.24 679.326 1562.55 675.433 1556.54 C 661.392 1535.78 653.509 1521.23 653.44 1495.51 C 653.343 1458.98 653.186 1422.29 653.01 1385.74 C 652.878 1358.36 661.139 1337.27 681.647 1318.71 L 626.661 1319.08 C 614.02 1319.15 598.658 1320.21 586.497 1317.65 C 556.333 1311.3 539.126 1284.73 539.095 1255.34 C 539.012 1177.19 539.157 1099.19 539.125 1021.11 L 539.152 947.608 C 539.194 919.911 535.633 893.526 557.192 872.165 C 576.706 852.829 601.76 855.07 627.104 854.904 C 624.209 852.433 621.416 849.844 618.732 847.144 C 594.664 822.766 583.186 791.572 583.7 757.529 C 584.283 724.158 598.268 692.424 622.505 669.478 C 652.775 640.575 683.218 635.321 722.999 636.45 C 767.428 541.802 842.748 479 941.405 447.542 C 937.019 442.63 936.275 441.253 933.166 435.656 C 932.874 427.389 934.373 413.342 935.033 404.716 C 936.273 388.816 937.345 372.902 938.248 356.979 C 924.334 341.959 878.585 299.838 890.127 280.36 C 898.227 266.691 954.953 259.942 971.783 255.405 C 982.216 238.042 991.744 218.976 1002.42 201.612 C 1008.51 191.698 1011.8 187.837 1022.69 185.136 z"/>
<path fill="rgb(255,198,41)" d="M 1009.67 455.427 C 1014.25 454.834 1019.87 454.988 1024.51 454.908 C 1204.32 451.886 1341.44 611.726 1339.77 785.926 C 1339.48 815.979 1324.7 848.279 1291.21 853.983 C 1267.68 857.989 1234.71 855.729 1209.85 855.734 L 1043.39 855.625 L 852.435 855.508 L 798.717 855.426 C 783.315 855.384 767.339 856.332 752.48 851.873 C 728.208 844.588 713.592 820.767 712.328 796.328 C 707.95 711.682 736.536 629.927 791.704 565.797 C 846.786 501.478 925.226 461.759 1009.67 455.427 z"/>
<path fill="rgb(255,198,41)" d="M 1012.9 1318.51 L 1218.71 1318.68 C 1258.09 1318.67 1297.65 1318.22 1336.88 1318.77 C 1359.23 1318.5 1381.42 1340.34 1381 1363.02 C 1380.28 1401.83 1382.31 1442.86 1380.02 1481.52 C 1379.38 1493.58 1378 1505.59 1375.89 1517.48 C 1371.27 1542.27 1363.54 1566.37 1352.89 1589.22 C 1320.5 1658.03 1261.94 1711.04 1190.24 1736.42 C 1162.66 1745.97 1133.69 1750.91 1104.5 1751.05 C 1034.22 1751.25 966.76 1723.41 917.078 1673.7 C 873.314 1629.89 846.024 1574.25 839.574 1512.3 C 837.958 1496.77 838.633 1476.2 838.7 1460.29 C 838.834 1437.66 838.812 1415.02 838.636 1392.38 C 838.587 1370.27 838.999 1352.84 856.398 1335.66 C 863.966 1328.09 873.499 1322.8 883.92 1320.37 C 894.391 1317.87 919.815 1318.69 931.806 1318.67 L 1012.9 1318.51 z"/>
<path fill="rgb(255,255,255)" d="M 1069.12 875.293 C 1095.04 874.028 1130.54 875.314 1157.47 875.427 L 1293.39 875.417 C 1327.94 875.679 1362.49 875.622 1397.04 875.249 C 1415.35 875.176 1433.5 875.06 1451.92 875.368 C 1465.2 873.359 1487.93 890.052 1489.72 903.449 C 1492.91 927.492 1491.45 961.391 1491.44 985.751 L 1491.25 1128.91 L 1491.12 1210.68 C 1491.17 1243.74 1499.81 1286.79 1459.84 1298.77 C 1446.43 1300.59 1427.23 1299.53 1413.18 1299.81 C 1378.84 1300.49 1344.36 1298.9 1310.11 1298.89 L 1149.37 1298.92 C 1123.12 1298.93 1096.57 1299.15 1070.61 1298.76 C 1054.61 1298.53 1035.8 1282.7 1034.16 1267.34 C 1032.41 1250.88 1033.04 1230.02 1033.01 1213.37 L 1032.98 1107.84 L 1032.98 975.964 C 1032.98 953.637 1032.65 930.398 1033.45 908.073 C 1033.64 902.799 1036.84 896.183 1040.04 892.046 C 1048.11 881.631 1056.53 877.276 1069.12 875.293 z"/>
<path fill="rgb(36,87,245)" d="M 716.934 874.468 L 718.394 874.511 L 718.755 875.856 C 708.261 891.159 705.474 900.142 705.361 918.953 C 705.211 943.984 705.474 969.004 705.598 994.035 L 705.781 1127.84 L 705.557 1215.23 C 705.446 1252.87 701.487 1265.59 718.284 1299.99 L 637.889 1300.01 C 621.308 1300.06 593.673 1302.23 579.266 1295.16 C 564.703 1284.39 558.641 1273.14 558.402 1255.13 C 558.045 1228.24 558.188 1201.39 558.239 1174.5 L 558.414 1027.18 L 558.283 950.015 C 558.257 939.484 556.876 915.534 559.182 906.441 C 568.572 869.401 606.726 874.533 634.791 874.616 C 662.172 874.886 689.555 874.837 716.934 874.468 z"/>
<path fill="rgb(36,87,245)" d="M 759.616 875.372 C 798.068 874.029 839.321 875.261 878.28 874.598 C 873.515 882.277 866.415 895.829 865.773 904.752 C 864.41 923.717 865.011 944.787 865.039 963.858 L 865.092 1078.42 L 865.043 1203.71 C 865.029 1224.86 864.246 1248.99 866.288 1269.91 C 867.282 1280.1 875.146 1291.7 881.358 1299.77 L 856.949 1299.62 C 835.195 1299.3 813.302 1299.77 791.584 1299.46 C 776.68 1299.24 755.177 1301.52 742.433 1293.71 C 723.14 1281.9 724.157 1259.66 724.357 1240.01 C 724.386 1230.43 724.327 1221.31 724.359 1211.98 L 724.637 1116.45 L 724.605 987.483 C 724.551 963.694 724.298 939.967 724.782 916.177 C 725.274 891.98 735.674 879.811 759.616 875.372 z"/>
<path fill="rgb(36,87,245)" d="M 990.609 874.484 L 1029.64 874.182 C 1023.73 882.229 1015.78 893.6 1014.82 903.494 C 1013.02 922.127 1013.72 944.015 1013.75 962.894 L 1013.94 1079.67 L 1014.25 1206.56 C 1014.33 1227.44 1013.83 1250.65 1015.64 1271.39 C 1016.43 1280.52 1024.9 1292.36 1030.11 1299.82 C 999.658 1299.85 969.203 1299.69 938.75 1299.35 C 923.506 1299.28 911.216 1300.57 898.557 1289.91 C 888.129 1281.14 884.266 1267.39 884.063 1254.13 C 883.688 1229.65 883.815 1204.7 883.825 1180.17 L 883.998 1039.9 L 884.004 954.499 C 883.977 931.282 879.087 880.848 913.015 876.152 C 935.959 872.976 966.637 874.706 990.609 874.484 z"/>
<path fill="rgb(36,87,245)" d="M 727.23 1319.24 C 765.75 1318.24 806.748 1318.92 845.451 1318.92 C 830.891 1335.45 821.104 1350.25 820.408 1372.99 C 819.46 1403.96 820.13 1434.94 819.807 1465.91 C 819.578 1487.96 819.788 1508.16 822.78 1530.03 C 813.415 1546.07 802.963 1555.88 786.724 1564.54 C 731.526 1587.16 672.058 1551.56 671.745 1490.6 C 671.613 1464.91 671.987 1439.18 671.819 1413.48 C 671.733 1400.42 670.806 1383.37 672.913 1370.67 C 674.236 1362.17 677.499 1354.09 682.448 1347.06 C 693 1331.86 709.169 1322.44 727.23 1319.24 z"/>
<path fill="rgb(255,255,255)" d="M 1024.45 203.592 C 1037.49 216.967 1054.51 260.705 1067.29 273.694 C 1091.37 279.992 1118.2 283.77 1142.51 289.902 C 1130.57 308.952 1105.61 331.693 1092.01 350.876 C 1091.64 375.204 1096.01 408.257 1097.05 433.709 C 1077.82 426.229 1047.15 409.608 1026.21 400.409 C 1013.73 402.577 983.679 419.668 970.911 425.672 C 966.133 427.919 960.239 431.878 955.204 432.74 L 953.557 431.539 C 951.48 418.463 956.823 369.082 957.125 351.32 C 942.622 330.925 918.278 308.33 906.086 289.862 C 920.68 285.515 974.204 278.408 982.102 271.804 C 989.11 265.944 993.682 255.858 998.198 248.026 C 1006.5 233.624 1014.25 218.111 1023.79 204.52 L 1024.45 203.592 z"/>
<path fill="rgb(36,87,245)" d="M 706.871 1580.35 C 725.531 1587.25 739.077 1591.89 759.532 1590.57 C 786.496 1588.82 810.454 1576.09 828.271 1556.04 C 854.92 1646.58 904.743 1706.4 990.898 1746.66 C 994.514 1748 998.117 1749.38 1001.71 1750.8 C 993.321 1750.97 983.691 1751.35 975.478 1750.14 C 944.515 1750.26 908.528 1742.45 879.258 1732.92 C 799.823 1707.05 743.855 1654 706.871 1580.35 z"/>
<path fill="rgb(255,198,41)" d="M 694.569 656.349 C 702.349 655.495 707.552 655.803 715.425 656.107 C 698.634 698.547 690.813 752.504 693.175 798 C 694.366 820.934 704.11 839.828 721.279 854.897 C 703.635 855.139 672.314 857.548 657.456 851.238 C 651.888 848.558 646.606 845.322 641.689 841.579 C 620.283 825.186 607.481 801.209 604.054 774.615 C 600.247 746.157 607.903 717.353 625.335 694.54 C 642.686 672.098 666.745 659.886 694.569 656.349 z"/>
<path fill="rgb(255,198,41)" d="M 1334.9 654.369 C 1342.84 653.972 1348.93 653.713 1356.83 654.728 C 1383.09 658.346 1406.87 672.183 1422.98 693.233 C 1460.67 742.016 1451.77 806.831 1402.9 844.135 C 1380.07 860.381 1356.52 856.123 1328.52 855.963 C 1360.54 825.766 1359.26 800.995 1357.19 760.033 C 1355.25 721.431 1346.62 690.773 1334.9 654.369 z"/>
<path fill="rgb(255,255,255)" d="M 1024.09 420.407 C 1036.31 425.809 1045.87 431.302 1057.76 437.2 C 1038.53 435.206 1027.79 436.98 1011.07 436.103 C 1006.3 436.832 1002.29 436.894 997.486 437.003 C 996.809 436.83 994.291 437.379 993.713 436.515 C 993.122 435.629 996.187 434.712 996.284 434.678 L 998.123 433.797 C 1009.57 428.426 1012.8 426.697 1024.09 420.407 z"/>
</svg>
