<svg xmlns="http://www.w3.org/2000/svg" viewBox="206.4 187.8 1639.3 1639.3" aria-hidden="true">
<path fill="rgb(20,33,61)" d="M 646.551 249.309 L 1147.28 248.962 L 1314.19 249.077 C 1344.67 249.094 1375.41 248.554 1405.78 249.964 C 1420.54 250.649 1430.7 263.003 1431 277.21 C 1431.62 306.999 1431.22 337.011 1431.21 366.798 L 1431.43 533.973 L 1431.34 623.027 C 1431.34 633.757 1431.89 660.297 1430.36 669.287 C 1429.37 674.836 1426.54 679.887 1422.31 683.612 C 1416.93 688.341 1403.16 697.107 1396.81 701.361 L 1349.06 733.421 C 1289.42 773.068 1230.23 813.399 1171.51 854.406 C 1272.65 892.904 1353.04 949.531 1412.73 1040.72 C 1476.7 1138.44 1499.54 1260.74 1476.07 1374.73 C 1450.33 1499.78 1388.37 1590.48 1282.53 1660.98 C 1319.3 1665.75 1342.47 1667.34 1379.24 1677.69 C 1391.66 1681.67 1411.24 1687.25 1417.66 1699.77 C 1419.47 1703.29 1419.79 1707.29 1418.29 1710.98 C 1414.23 1721 1399.96 1726.52 1390.51 1730.06 C 1293.43 1766.41 1066.58 1764.76 963.058 1744.27 C 952.521 1742.18 941.813 1740.14 931.703 1736.45 C 923.662 1733.51 915.99 1729.48 907.9 1726.76 C 881.51 1717.88 855.892 1711.38 830.354 1699.61 C 749.407 1662.3 675.807 1598.33 630.139 1521.62 C 614.472 1495.3 602.228 1467.3 591.669 1438.59 C 552.543 1332.22 558.598 1201.47 606.275 1098.83 C 661.368 980.229 757.97 898.491 879.783 853.945 C 869.263 847.78 852.779 835.638 842.296 828.386 L 772.491 780.27 C 724.792 747.599 674.084 716.669 626.545 683.642 C 622.478 680.816 619.938 676.947 619.536 671.83 C 617.663 648.035 618.549 623.598 618.614 599.671 L 618.642 462.258 L 618.694 339.226 C 618.681 318.238 618.334 297.204 619.102 276.239 C 619.708 259.711 631.304 251.694 646.551 249.309 z"/>
<path fill="rgb(255,198,41)" d="M 797.842 957.18 C 802.758 949.579 863.651 917.52 876.402 912.143 C 951.25 880.503 1034.1 872.978 1113.42 890.617 C 1131.94 894.61 1151.18 899.655 1168.7 906.811 C 1268.98 945.967 1349.8 1023.03 1393.68 1121.33 C 1437.91 1218.93 1441.51 1330.12 1403.68 1430.38 C 1365.12 1531.65 1288.07 1613.57 1189.34 1658.25 C 1178.53 1663.06 1165.96 1668.17 1154.64 1671.31 C 1153.21 1671.88 1151.98 1672.36 1150.52 1672.85 C 1058.26 1704.17 947.121 1697.5 859.741 1654.74 C 800.242 1630 744.071 1583.79 703.983 1533.49 C 585.945 1385.39 594.038 1167.28 717.975 1025.34 C 735.747 1004.99 754.874 988.889 775.915 972.011 C 782.681 966.83 790.456 961.371 797.842 957.18 z"/>
<path fill="rgb(255,255,255)" d="M 775.915 972.011 C 782.681 966.83 790.456 961.371 797.842 957.18 C 793.113 963.224 787.204 966.909 781.673 971.997 C 593.939 1155.3 615.599 1468.46 821.687 1627.72 C 827.719 1632.38 857.601 1651.04 859.741 1654.74 C 800.242 1630 744.071 1583.79 703.983 1533.49 C 585.945 1385.39 594.038 1167.28 717.975 1025.34 C 735.747 1004.99 754.874 988.889 775.915 972.011 z"/>
<path fill="rgb(20,33,61)" d="M 1020.38 953.05 C 1025.54 952.825 1029.44 952.713 1034.42 954.382 C 1039.44 956.091 1043.8 959.333 1046.88 963.652 C 1051.62 970.322 1066.58 1002.58 1070.81 1011.17 C 1091.78 1053.71 1111.48 1096.36 1133 1138.7 C 1184.86 1146.97 1236.53 1156.9 1288.44 1164.96 C 1310.34 1169.09 1340.58 1167.05 1341.71 1197.35 C 1342.47 1217.92 1314.62 1236.16 1300.72 1250.2 C 1266.87 1284.38 1230.32 1316.35 1196.82 1350.87 C 1199.53 1362.72 1202.11 1380.61 1204.13 1392.92 C 1208.59 1419.86 1212.86 1446.84 1216.92 1473.84 C 1220.17 1494.37 1224.95 1514.76 1227.1 1535.41 C 1228.47 1548.51 1220.25 1562.19 1207.43 1566.02 C 1202.01 1567.63 1196.23 1567.48 1190.91 1565.58 C 1185.23 1563.52 1179.38 1560.37 1174.07 1557.51 C 1125.13 1531.19 1077.58 1502.13 1028.5 1476.09 C 1020.33 1471.58 883.648 1558.32 860.36 1565.86 C 855.896 1567.26 851.151 1567.51 846.565 1566.58 C 838.928 1565.1 832.098 1560.7 827.997 1554.08 C 822.338 1544.94 824.398 1533.73 826.235 1523.78 C 828.887 1509.42 830.971 1494.96 833.294 1480.54 L 846.154 1404.31 C 849.179 1386.43 851.734 1368.53 855.736 1350.85 C 850.342 1344.02 831.022 1326.36 824.22 1319.9 C 800.082 1297.06 776.101 1274.06 752.278 1250.89 C 740.059 1239.17 727.121 1227.8 715.763 1215.29 C 707.502 1206.19 708.056 1191.07 714.907 1181.34 C 717.593 1177.46 721.446 1174.54 725.906 1173 C 736.62 1169.28 774.629 1163.49 787.954 1161.18 L 918.907 1138.57 C 927.393 1123.35 935.699 1104.85 943.361 1088.89 L 981.619 1009.1 C 988.474 994.731 995.589 976.859 1004.15 963.677 C 1007.58 958.398 1014.64 955.324 1020.38 953.05 z"/>
<path fill="rgb(255,255,255)" d="M 1025.21 1044.61 C 1027.74 1048.05 1038.47 1070.1 1040.92 1074.97 C 1050.97 1094.81 1060.86 1114.72 1070.61 1134.71 C 1076.99 1147.99 1083.05 1161.34 1089.81 1174.36 C 1097.74 1189.64 1107.8 1191.78 1123.7 1193.97 C 1129.54 1194.77 1135.97 1195.92 1141.86 1196.86 C 1167.18 1200.85 1192.47 1204.97 1217.74 1209.22 C 1229.76 1211.22 1245.57 1212.95 1256.95 1216.54 C 1250.32 1224.67 1234.81 1238.81 1226.78 1246.51 C 1209.39 1263.24 1191.91 1279.87 1174.35 1296.42 C 1166.09 1304.16 1140.43 1325.27 1140.84 1336.42 C 1141.63 1358.16 1146.78 1382.23 1150.57 1403.85 C 1155.46 1432.23 1160.13 1460.64 1164.57 1489.09 C 1138.42 1475.07 1112.49 1460.65 1086.79 1445.82 C 1070.49 1436.46 1053.16 1426.66 1036.34 1418.22 C 1033.85 1416.98 1028.34 1416.47 1025.41 1416.18 C 1011.69 1417.84 983.465 1435.59 970.027 1443.12 L 887.473 1489.15 C 895.329 1443.26 903.279 1397.31 911.019 1351.41 C 911.987 1345.67 912.48 1332.59 909.578 1327.95 C 904.312 1319.52 892.061 1309.25 884.622 1302.3 L 829.204 1249.69 C 819.957 1241.04 802.587 1226.57 795.616 1216.61 C 805.546 1213.56 823.997 1211.28 834.812 1209.66 C 858.414 1206.17 881.976 1202.41 905.495 1198.39 C 919.343 1196.06 933.144 1194.01 946.716 1190.31 C 959.486 1187.33 965.215 1170.99 970.583 1160.21 C 989.357 1122.51 1005.98 1081.94 1025.21 1044.61 z"/>
<path fill="rgb(36,87,245)" d="M 1051.67 307.49 L 1052.51 304.809 C 1057.31 303.614 1075.82 304.012 1081.72 304.01 L 1140.27 304.001 C 1218.61 303.993 1298.47 303.193 1376.7 304.082 C 1376.7 319.378 1376.3 336.559 1376.79 351.7 C 1378.9 448.678 1375.8 551.084 1376.19 648.523 C 1362.03 658.408 1347.74 668.11 1333.32 677.626 C 1326.6 682.748 1317.95 688.64 1310.84 693.308 C 1239.92 739.864 1171.31 791.59 1100.13 837.452 C 1085.67 834.726 1066.78 832.869 1051.88 831.007 C 1049.43 721.862 1050.93 607.494 1051.02 498.021 L 1051.08 376.063 C 1051.08 355.79 1050.27 327.089 1051.67 307.49 z"/>
<path fill="rgb(255,255,255)" d="M 1051.67 307.49 L 1052.51 304.809 C 1057.31 303.614 1075.82 304.012 1081.72 304.01 L 1140.27 304.001 C 1218.61 303.993 1298.47 303.193 1376.7 304.082 C 1376.7 319.378 1376.3 336.559 1376.79 351.7 C 1366.67 351.785 1351.94 351.319 1342.37 351.838 C 1333.43 350.911 1317.87 351.427 1308.6 351.466 L 1250.54 351.541 L 1051.59 351.028 L 1051.67 307.49 z"/>
<path fill="rgb(1,27,254)" d="M 1342.37 351.838 C 1351.94 351.319 1366.67 351.785 1376.79 351.7 C 1378.9 448.678 1375.8 551.084 1376.19 648.523 C 1362.03 658.408 1347.74 668.11 1333.32 677.626 C 1334.31 651.72 1333.58 620.719 1333.58 594.465 L 1333.33 436.553 L 1333.12 380.608 C 1333.1 374.822 1332.64 358.507 1333.56 353.604 C 1336.41 351.538 1338.15 352.161 1342.37 351.838 z"/>
<path fill="rgb(36,87,245)" d="M 672.921 304.194 C 709.13 303.365 747.711 304.045 784.092 304.043 L 996.917 304.044 L 996.989 351.56 L 997.187 831.903 C 979.086 833.114 968.201 834.339 950.063 837.644 C 931.103 825.714 911.196 811.26 892.676 798.29 L 826.289 752.1 C 788.818 725.76 750.827 700.649 713.096 674.758 C 699.827 665.83 687.051 657.186 673.343 648.922 C 671.62 611.406 672.972 562.82 672.979 524.51 L 672.921 304.194 z"/>
<path fill="rgb(255,255,255)" d="M 672.921 304.194 C 709.13 303.365 747.711 304.045 784.092 304.043 L 996.917 304.044 L 996.989 351.56 C 903.034 351.552 807.934 350.599 714.096 351.601 C 714.505 459.321 714.171 567.043 713.096 674.758 C 699.827 665.83 687.051 657.186 673.343 648.922 C 671.62 611.406 672.972 562.82 672.979 524.51 L 672.921 304.194 z"/>
</svg>
